<svg id="svg" version="1.1" xmlns="http://www.w3.org/2000/svg" xmlns:xlink="http://www.w3.org/1999/xlink" width="400" height="400" viewBox="0, 0, 400,400"><g id="svgg"><path id="path0" d="M337.436 228.031 C 334.898 231.046,337.784 235.270,341.497 233.976 C 345.538 232.567,344.481 226.800,340.181 226.800 C 338.763 226.800,338.295 227.010,337.436 228.031 M241.836 231.631 C 240.117 233.673,240.673 236.269,243.071 237.407 C 245.666 238.638,248.400 236.823,248.400 233.869 C 248.400 230.582,243.984 229.077,241.836 231.631 " stroke="none" fill="#d4d4d4" fill-rule="evenodd"></path><path id="path1" d="" stroke="none" fill="#6c6c6c" fill-rule="evenodd"></path><path id="path2" d="M180.400 34.440 C 165.196 35.763,164.087 36.246,166.225 40.614 C 168.191 44.633,167.408 45.403,154.006 52.622 C 132.845 64.021,117.415 76.878,110.165 89.152 C 109.768 89.824,108.905 90.420,107.865 90.741 C 70.878 102.163,36.721 129.677,21.386 160.400 C 19.804 163.568,19.062 164.566,16.921 166.400 C 15.509 167.610,11.124 171.899,7.176 175.932 L -0.000 183.263 -0.000 186.232 C 0.000 189.248,0.376 189.864,1.520 188.720 C 1.893 188.347,2.107 188.347,2.480 188.720 C 3.149 189.389,4.603 189.319,5.208 188.590 C 5.662 188.043,5.785 188.043,6.389 188.590 C 7.504 189.599,8.473 189.297,10.530 187.300 C 11.847 186.021,12.414 185.662,12.265 186.200 C 5.475 210.731,11.664 250.001,24.314 262.651 C 27.303 265.640,28.427 265.981,35.326 265.991 C 41.351 266.000,42.191 265.836,43.858 264.320 C 44.998 263.283,44.933 263.112,46.948 272.471 C 48.750 280.835,49.867 284.194,51.272 285.465 C 52.154 286.263,57.603 286.610,58.876 285.949 C 59.287 285.735,59.649 285.755,59.799 285.999 C 60.688 287.437,64.165 285.719,65.842 283.015 C 67.535 280.283,69.340 277.883,69.817 277.726 C 71.211 277.267,78.008 282.899,88.787 293.444 C 98.220 302.672,100.473 304.665,104.500 307.335 C 108.187 309.779,108.084 308.967,105.400 314.436 C 101.734 321.906,102.224 322.719,110.405 322.738 C 120.258 322.761,126.633 318.539,137.679 304.675 C 139.454 302.448,140.883 300.978,140.983 301.275 C 141.081 301.564,141.633 303.240,142.211 304.999 C 155.076 344.184,212.761 372.074,269.636 366.607 C 331.409 360.670,376.067 313.507,370.834 259.735 C 369.175 242.694,362.350 226.310,349.174 207.737 L 346.859 204.474 350.530 204.624 C 352.548 204.706,354.451 204.618,354.757 204.428 C 355.150 204.184,356.217 204.801,358.357 206.510 C 369.920 215.738,377.631 219.216,387.164 219.503 C 395.200 219.745,397.666 218.954,399.414 215.572 C 400.466 213.539,400.258 179.208,399.162 173.877 C 392.244 140.239,382.516 121.889,363.621 106.837 C 361.387 105.056,359.627 103.600,359.710 103.600 C 360.015 103.600,367.500 106.913,371.161 108.669 C 374.371 110.208,375.064 110.408,375.884 110.034 C 376.573 109.720,377.074 109.718,377.651 110.027 C 378.221 110.332,378.812 110.335,379.668 110.036 C 380.507 109.744,381.117 109.742,381.655 110.029 C 383.550 111.044,385.785 108.752,384.626 106.983 C 383.196 104.802,366.298 97.675,358.000 95.755 C 353.532 94.721,346.303 93.627,343.843 93.613 C 342.112 93.604,340.544 93.227,337.937 92.196 C 327.944 88.245,315.996 85.463,305.200 84.575 L 302.200 84.328 297.258 78.943 C 265.191 43.998,228.997 30.215,180.400 34.440 M205.258 38.809 C 235.116 41.760,257.401 53.295,283.200 79.155 L 292.600 88.577 297.863 89.067 C 304.453 89.680,320.629 92.896,321.498 93.765 C 321.730 93.997,319.862 94.341,316.000 94.778 C 310.116 95.444,296.201 98.484,287.000 101.113 C 285.342 101.587,284.675 102.998,285.424 104.446 L 285.993 105.547 291.097 105.531 C 294.908 105.520,296.843 105.324,298.741 104.758 C 300.138 104.342,301.668 103.914,302.141 103.809 C 302.613 103.703,304.080 103.358,305.400 103.043 C 312.595 101.326,316.934 100.436,321.268 99.790 C 322.211 99.649,323.086 99.470,323.212 99.392 C 323.338 99.314,325.727 99.044,328.520 98.792 L 333.599 98.333 338.299 100.797 C 365.845 115.238,379.205 135.818,387.381 176.400 C 390.577 192.264,390.610 210.362,387.449 213.523 C 385.617 215.354,368.007 203.421,360.519 195.273 C 353.897 188.068,348.363 185.631,335.398 184.208 C 316.845 182.173,308.345 181.589,285.800 180.797 C 255.052 179.717,244.625 176.766,239.505 167.692 C 237.921 164.886,238.239 164.965,226.185 164.383 C 202.506 163.241,183.731 164.571,171.613 168.250 C 160.994 171.474,156.214 174.806,145.132 186.705 C 141.680 190.412,141.456 190.485,137.763 189.139 C 134.163 187.826,123.864 187.607,121.419 188.791 C 114.349 192.214,118.557 203.899,140.077 240.600 L 142.657 245.000 135.126 244.869 C 123.471 244.666,119.518 246.946,114.625 256.697 C 104.858 276.158,111.744 288.000,132.829 288.000 C 134.573 288.000,136.000 288.107,136.000 288.238 C 136.000 289.186,127.706 300.540,123.050 305.965 L 119.819 309.731 119.554 308.439 C 119.235 306.878,117.906 305.382,115.945 304.376 C 113.311 303.025,108.733 299.057,99.000 289.689 C 87.613 278.729,84.519 276.153,80.032 273.895 L 76.664 272.200 70.223 272.067 C 64.491 271.949,63.543 272.025,61.615 272.758 C 60.423 273.210,59.418 273.540,59.381 273.491 C 59.344 273.441,58.993 271.690,58.601 269.600 C 57.091 261.547,55.465 257.142,53.211 255.000 L 51.949 253.800 46.308 253.701 C 39.847 253.587,38.579 254.020,35.888 257.259 L 34.501 258.929 33.052 256.964 C 24.749 245.712,20.070 221.717,22.179 201.200 C 23.688 186.511,28.674 169.042,32.254 165.899 C 34.331 164.076,40.392 159.656,42.400 158.500 C 43.390 157.931,44.470 157.252,44.800 156.992 C 46.095 155.972,51.419 153.411,56.341 151.440 C 61.645 149.317,73.884 146.658,82.400 145.779 C 85.804 145.428,87.428 143.282,85.500 141.683 C 82.201 138.947,54.582 143.601,42.278 148.965 L 40.756 149.629 42.737 146.715 C 57.129 125.543,85.390 105.859,117.340 94.752 C 119.993 93.830,120.157 93.693,122.535 90.400 C 133.279 75.524,144.806 66.406,168.171 54.306 C 177.105 49.679,179.827 46.496,179.006 41.638 C 178.688 39.755,178.546 39.805,186.476 39.019 C 193.164 38.357,199.914 38.281,205.258 38.809 M188.546 50.227 C 187.016 52.562,188.337 53.740,193.217 54.389 C 195.078 54.637,197.680 55.090,199.000 55.397 C 200.320 55.703,202.030 56.062,202.800 56.194 C 205.137 56.595,212.825 58.421,215.800 59.282 C 220.169 60.547,227.357 62.887,227.800 63.189 C 228.020 63.339,229.096 63.794,230.191 64.199 C 237.919 67.059,249.971 75.299,256.000 81.845 C 258.894 84.988,263.316 90.045,264.986 92.121 C 267.030 94.663,267.772 95.041,269.061 94.197 C 270.002 93.580,270.119 93.583,270.850 94.245 C 271.583 94.908,271.704 94.911,272.750 94.293 C 273.741 93.708,273.964 93.699,274.707 94.220 C 275.383 94.693,275.748 94.716,276.583 94.335 C 279.138 93.171,277.990 90.820,271.169 83.251 C 257.761 68.374,246.872 61.581,226.200 55.199 C 211.379 50.623,190.125 47.817,188.546 50.227 M197.400 80.857 C 187.157 82.388,169.994 89.193,170.006 91.719 C 170.016 93.808,171.219 94.739,172.911 93.968 C 173.483 93.707,174.177 93.691,174.805 93.923 C 175.410 94.147,176.214 94.144,176.870 93.916 C 177.580 93.668,178.220 93.690,178.760 93.979 C 179.636 94.447,179.370 94.539,188.600 90.592 C 204.659 83.724,213.482 83.748,231.200 90.707 C 235.789 92.509,241.587 93.392,242.211 92.383 C 242.334 92.182,242.865 92.197,243.440 92.415 C 244.918 92.977,245.505 92.895,246.400 92.000 C 248.216 90.184,246.974 88.549,242.643 87.050 C 241.079 86.508,237.421 85.243,234.514 84.237 C 224.589 80.806,207.911 79.287,197.400 80.857 M77.330 158.594 C 76.294 159.320,69.213 168.684,66.588 172.800 C 55.855 189.632,52.551 203.921,52.860 232.173 C 53.025 247.298,53.385 248.628,56.817 246.791 C 57.358 246.501,57.810 246.524,58.361 246.869 C 58.966 247.246,59.374 247.249,60.181 246.881 C 60.963 246.525,61.404 246.520,61.951 246.862 C 64.807 248.646,65.739 246.281,65.362 238.200 C 64.723 224.483,65.484 210.621,67.377 201.532 C 69.993 188.968,75.941 176.975,85.363 165.265 C 87.016 163.210,88.476 161.192,88.606 160.780 C 89.157 159.046,86.977 157.449,85.291 158.351 C 84.735 158.649,84.149 158.636,83.274 158.305 C 82.234 157.913,81.920 157.948,81.277 158.530 C 80.597 159.145,80.460 159.154,80.008 158.610 C 79.368 157.839,78.416 157.833,77.330 158.594 M224.000 169.058 L 227.400 169.301 228.732 171.463 C 231.561 176.053,237.960 179.936,246.071 181.983 C 253.968 183.977,260.848 184.568,288.200 185.606 C 306.359 186.295,321.274 187.487,322.057 188.312 C 322.207 188.470,323.764 190.600,325.517 193.044 L 328.703 197.488 325.397 197.721 C 316.365 198.359,299.468 210.140,302.609 213.610 C 303.359 214.438,304.624 214.626,305.542 214.044 C 305.855 213.846,306.561 213.881,307.214 214.128 C 308.032 214.437,308.623 214.427,309.358 214.092 C 309.991 213.803,310.461 213.775,310.609 214.015 C 311.246 215.046,312.963 214.304,315.728 211.803 C 321.609 206.484,327.235 202.987,330.649 202.530 L 332.224 202.318 336.325 208.209 C 339.480 212.741,340.215 214.031,339.513 213.801 C 337.892 213.269,326.790 213.145,324.428 213.633 C 317.989 214.961,313.200 218.603,313.200 222.171 C 313.200 223.699,314.890 224.695,316.117 223.891 C 317.786 222.798,318.638 223.922,317.406 225.592 C 312.625 232.071,318.287 237.353,330.000 237.343 C 340.724 237.334,345.600 234.523,345.600 228.348 C 345.600 223.240,341.998 221.082,333.000 220.800 L 326.600 220.600 328.200 219.638 C 329.080 219.109,330.340 218.701,331.000 218.732 C 331.660 218.762,332.830 218.798,333.600 218.811 C 334.370 218.823,335.360 218.848,335.800 218.864 C 336.240 218.881,337.140 218.881,337.800 218.864 C 338.924 218.836,339.371 218.842,341.400 218.910 C 341.840 218.925,342.451 218.861,342.757 218.768 C 343.353 218.589,344.831 220.881,348.602 227.832 C 375.799 277.964,347.895 337.273,287.959 356.729 C 263.535 364.657,244.295 364.409,218.216 355.827 C 177.023 342.272,154.601 319.937,150.771 288.643 C 150.103 283.182,150.372 283.357,142.818 283.467 C 130.652 283.645,124.908 281.343,122.971 275.514 C 120.796 268.964,126.830 254.028,133.070 250.521 L 134.620 249.650 136.810 250.751 C 138.015 251.357,140.710 252.756,142.800 253.861 L 146.600 255.870 151.771 255.791 C 160.734 255.656,160.718 253.919,151.606 238.200 C 142.445 222.397,140.089 218.194,136.972 212.087 C 133.226 204.746,131.507 200.549,130.757 196.911 C 130.134 193.884,130.090 193.933,132.788 194.633 C 134.240 195.009,137.158 195.200,141.472 195.200 C 151.208 195.200,151.549 195.020,160.506 185.121 C 172.383 171.996,192.817 166.826,224.000 169.058 M342.416 192.441 C 344.785 193.704,349.293 197.478,349.992 198.786 C 350.350 199.454,350.213 199.453,347.285 198.759 C 345.588 198.356,343.750 198.014,343.200 197.997 C 342.342 197.971,337.667 192.316,336.869 190.338 C 336.673 189.853,339.745 191.017,342.416 192.441 M224.411 203.025 C 218.323 204.345,206.563 210.795,205.787 213.240 C 205.199 215.093,207.369 216.580,209.217 215.591 C 209.761 215.300,210.213 215.326,210.782 215.682 C 211.387 216.060,211.868 216.074,212.750 215.741 C 213.426 215.486,214.144 215.445,214.458 215.644 C 215.523 216.319,216.482 215.968,219.917 213.646 C 230.951 206.189,234.640 205.890,246.834 211.464 C 249.517 212.691,250.260 212.879,251.138 212.555 C 251.837 212.297,252.583 212.301,253.319 212.566 C 254.126 212.856,254.660 212.830,255.229 212.475 C 255.819 212.107,256.228 212.094,256.846 212.425 C 258.818 213.480,261.141 211.364,259.958 209.591 C 258.836 207.911,249.821 204.391,243.486 203.160 C 238.691 202.229,228.419 202.156,224.411 203.025 M227.330 217.588 C 221.610 219.104,217.600 222.476,217.600 225.771 C 217.600 227.286,219.290 228.295,220.500 227.502 C 222.328 226.305,222.785 227.384,221.516 229.901 C 217.973 236.924,222.712 240.915,234.584 240.907 C 245.327 240.900,250.000 238.184,250.000 231.948 C 250.000 226.826,246.368 224.655,237.480 224.465 C 230.698 224.319,230.257 224.107,233.602 222.599 C 234.998 221.970,235.410 221.941,236.746 222.382 C 237.899 222.763,238.494 222.778,239.119 222.443 C 239.738 222.112,240.218 222.116,240.974 222.461 C 241.677 222.781,242.270 222.802,242.885 222.527 C 243.478 222.263,244.216 222.264,245.084 222.530 C 247.159 223.167,248.808 221.093,247.663 219.288 C 246.237 217.042,233.434 215.972,227.330 217.588 M342.051 227.027 C 342.718 227.371,343.502 228.226,343.795 228.927 C 345.448 232.883,340.584 236.246,337.569 233.231 C 334.373 230.034,338.043 224.954,342.051 227.027 M246.451 230.627 C 250.034 232.479,248.601 238.000,244.539 238.000 C 241.564 238.000,239.644 234.040,241.509 231.752 C 242.967 229.964,244.496 229.615,246.451 230.627 M282.535 251.599 C 280.132 252.568,280.759 253.868,286.203 259.209 C 299.748 272.497,299.820 275.913,286.600 277.999 C 282.200 278.694,281.999 278.765,281.530 279.795 C 281.177 280.568,281.222 280.973,281.745 281.772 L 282.404 282.777 288.502 282.634 C 312.168 282.079,315.137 273.882,297.882 256.730 C 292.443 251.324,291.654 250.801,290.298 251.701 C 289.551 252.197,289.301 252.191,288.370 251.657 C 287.404 251.103,287.205 251.105,286.333 251.676 C 285.500 252.222,285.259 252.233,284.606 251.755 C 283.745 251.126,283.716 251.123,282.535 251.599 M243.500 298.229 C 241.952 299.068,242.081 300.214,244.174 304.214 C 256.865 328.475,279.018 332.515,309.267 316.084 C 320.033 310.236,331.818 302.263,332.252 300.534 C 332.691 298.786,330.532 297.159,329.056 298.127 C 328.305 298.618,328.050 298.625,327.429 298.172 C 326.826 297.731,326.469 297.725,325.447 298.142 C 324.448 298.549,324.006 298.551,323.225 298.151 C 322.065 297.557,321.678 297.723,318.000 300.397 C 314.065 303.258,306.423 308.093,301.253 310.993 C 291.398 316.518,281.314 320.505,277.107 320.539 C 270.951 320.588,260.806 311.496,255.545 301.217 C 253.949 298.099,252.810 297.239,251.453 298.129 C 250.608 298.682,250.413 298.684,249.647 298.148 C 248.901 297.625,248.642 297.620,247.655 298.112 C 246.702 298.588,246.404 298.592,245.784 298.139 C 244.889 297.484,244.871 297.485,243.500 298.229 " stroke="none" fill="#343434" fill-rule="evenodd"></path></g></svg>